<svg xmlns="http://www.w3.org/2000/svg"  viewBox="0 0 40 40" width="40px" height="40px"><path fill="#ffc49c" d="M26.5,14.345c3.174-0.92,7.033-5.118,7.203-5.304c0.025-0.028,1.949-2.145,5.347-2.493 C38.53,7.551,38.5,8.518,38.5,10c0,0.987,0.241,1.636,0.475,2.264C39.233,12.957,39.5,13.675,39.5,15 c0,6.091-6.259,6.486-6.526,6.501L26.5,21.516V14.345z"/><path fill="#e0ac89" d="M38.261,7.171C38.019,7.994,38,8.866,38,10c0,1.078,0.257,1.769,0.506,2.438 C38.76,13.121,39,13.765,39,15c0,5.472-5.568,5.968-6.032,6L27,21.014v-6.307c3.236-1.156,6.906-5.147,7.083-5.341 C34.101,9.346,35.574,7.711,38.261,7.171 M40,6c-4.281,0-6.667,2.705-6.667,2.705s-4.216,4.618-7.333,5.25v8.062L33,22 c0,0,7-0.364,7-7c0-2.63-1-3.058-1-5S39.072,7.196,40,6L40,6z"/><path fill="#ffc49c" d="M7.001,21.5C6.742,21.496,0.5,21.322,0.5,15.267c0-1.333,0.27-2.129,0.53-2.899 C1.261,11.686,1.5,10.98,1.5,10c0-1.483-0.03-2.449-0.55-3.452c3.414,0.347,5.321,2.464,5.341,2.487 c0.175,0.191,4.035,4.389,7.208,5.31v7.171L7.001,21.5z"/><path fill="#e0ac89" d="M1.738,7.17c2.649,0.53,4.111,2.121,4.19,2.209C6.095,9.562,9.765,13.551,13,14.707v6.307L7.014,21 C6.768,20.997,1,20.852,1,15.266c0-1.25,0.245-1.973,0.504-2.738C1.748,11.807,2,11.062,2,10C2,8.866,1.981,7.994,1.738,7.17 M0,6 c0.928,1.196,1,2.058,1,4s-1,2.636-1,5.266C0,21.902,7,22,7,22l7,0.016v-8.062c-3.117-0.631-7.333-5.25-7.333-5.25S4.281,6,0,6L0,6 z"/><path fill="#b08159" d="M20,33.5c-11.757,0-12.476-6.145-12.5-7.376V10.229c1.832,1.727,4.938,4.302,7.167,4.302h10.667 c2.228,0,5.335-2.575,7.167-4.302v15.905C32.476,27.355,31.757,33.5,20,33.5z"/><path fill="#a16a4a" d="M32,11.367l0,14.747C31.977,27.264,31.291,33,20,33S8.023,27.264,8,26.134V11.367 c2.001,1.774,4.614,3.663,6.667,3.663h10.667C27.386,15.03,29.999,13.141,32,11.367 M33,9.045 c-1.156,1.162-5.151,4.985-7.667,4.985c-2.965,0-7.701,0-10.667,0c-2.516,0-6.511-3.823-7.667-4.985v17.089 C7.021,27.162,7.622,34,20,34s12.979-6.838,13-7.866V9.045L33,9.045z"/><path fill="#fff" d="M13.5 15A5.5 5.5 0 1 0 13.5 26 5.5 5.5 0 1 0 13.5 15zM25 27.343C25 30.284 22.761 33 20 33s-5-2.716-5-5.657H25z"/><path fill="#ffc49c" d="M26 17A4 4 0 1 0 26 25A4 4 0 1 0 26 17Z"/><path fill="#fff" d="M30.003,20.997c0,0-1.791,2-4,2s-4-2-4-2s1.791-2,4-2S30.003,20.997,30.003,20.997z"/><path d="M26.003 19.5A1.5 1.5 0 1 0 26.003 22.5A1.5 1.5 0 1 0 26.003 19.5Z"/><path fill="#36404d" d="M26.003,20c0.553,0,1.003,0.449,1.003,1s-0.45,1-1.003,1S25,21.551,25,21S25.45,20,26.003,20 M26.003,19C24.897,19,24,19.895,24,21s0.897,2,2.003,2s2.003-0.895,2.003-2S27.109,19,26.003,19L26.003,19z"/><path fill="#ffc49c" d="M20 23.997A2 2 0 1 0 20 27.997A2 2 0 1 0 20 23.997Z"/><path fill="#ffc49c" d="M20 25A5 2.5 0 1 0 20 30A5 2.5 0 1 0 20 25Z"/><path fill="#e0ac89" d="M20.5 25A0.5 0.5 0 1 0 20.5 26A0.5 0.5 0 1 0 20.5 25Z"/><path fill="#e0ac89" d="M19.5 25A0.5 0.5 0 1 0 19.5 26A0.5 0.5 0 1 0 19.5 25Z"/><g><path fill="#ffc49c" d="M13.997 17A4 4 0 1 0 13.997 25A4 4 0 1 0 13.997 17Z"/></g><g><path fill="#fff" d="M18,20.997c0,0-1.791,2-4,2s-4-2-4-2s1.791-2,4-2S18,20.997,18,20.997z"/></g><g><path d="M14 19.5A1.5 1.5 0 1 0 14 22.5A1.5 1.5 0 1 0 14 19.5Z"/><path fill="#36404d" d="M14,20c0.553,0,1.003,0.449,1.003,1s-0.45,1-1.003,1s-1.003-0.449-1.003-1S13.447,20,14,20 M14,19 c-1.106,0-2.003,0.895-2.003,2s0.897,2,2.003,2c1.106,0,2.003-0.895,2.003-2S15.106,19,14,19L14,19z"/></g></svg>